<svg version="1.1" xmlns="http://www.w3.org/2000/svg" xmlns:xlink="http://www.w3.org/1999/xlink" viewBox="0 0 172 172"><g fill="none" fill-rule="nonzero" stroke="none" stroke-width="1" stroke-linecap="butt" stroke-linejoin="miter" stroke-miterlimit="10" stroke-dasharray="" stroke-dashoffset="0" font-family="none" font-weight="none" font-size="none" text-anchor="none" style="mix-blend-mode: normal"><path d="M0,172v-172h172v172z" fill="none"></path><g><g id="surface1"><path d="M78.3675,0c-4.04469,-0.01344 -8.17,0.56438 -12.255,1.8275c-21.72844,6.74563 -34.15812,30.05969 -27.4125,51.815v0.215c0.88688,2.44563 3.26531,10.18563 4.73,14.9425h-12.47c-5.65719,0 -10.32,4.66281 -10.32,10.32v82.56c0,5.65719 4.66281,10.32 10.32,10.32h110.08c5.65719,0 10.32,-4.66281 10.32,-10.32v-82.56c0,-5.65719 -4.66281,-10.32 -10.32,-10.32h-90.3c-1.06156,-3.41312 -4.25969,-13.50469 -5.59,-17.2h0.1075c-5.63031,-18.15406 4.6225,-37.46375 22.79,-43.1075c18.12719,-5.63031 37.54438,4.56875 43.215,22.6825c0,0.01344 0,0.09406 0,0.1075c0.77938,2.72781 4.515,14.835 4.515,14.835c0.30906,1.23625 1.27656,2.21719 2.51281,2.51281c1.24969,0.30906 2.55312,-0.09406 3.39969,-1.04813c0.84656,-0.9675 1.10188,-2.31125 0.645,-3.50719c0,0 -3.88344,-12.52375 -4.515,-14.7275v-0.1075c-5.0525,-16.29969 -19.43062,-27.37219 -35.475,-29.025c-1.33031,-0.13437 -2.63375,-0.215 -3.9775,-0.215zM30.96,75.68h110.08c1.90813,0 3.44,1.53188 3.44,3.44v82.56c0,1.90813 -1.53187,3.44 -3.44,3.44h-110.08c-1.90812,0 -3.44,-1.53187 -3.44,-3.44v-82.56c0,-1.90812 1.53188,-3.44 3.44,-3.44zM86,103.2c-5.84531,0 -10.32,4.47469 -10.32,10.32c0,3.09063 1.37063,5.805 3.44,7.525v9.675c0,3.78938 3.09063,6.88 6.88,6.88c3.78938,0 6.88,-3.09062 6.88,-6.88v-9.675c2.06938,-1.72 3.44,-4.43437 3.44,-7.525c0,-5.84531 -4.47469,-10.32 -10.32,-10.32z"></path></g></g></g></svg>