<svg version="1.1" xmlns="http://www.w3.org/2000/svg" xmlns:xlink="http://www.w3.org/1999/xlink" viewBox="0 0 192 192"><g fill="none" fill-rule="nonzero" stroke="none" stroke-width="1" stroke-linecap="butt" stroke-linejoin="miter" stroke-miterlimit="10" stroke-dasharray="" stroke-dashoffset="0" font-family="none" font-weight="none" font-size="none" text-anchor="none" style="mix-blend-mode: normal"><path d="M0,192v-192h192v192z" fill="none"></path><g fill="#000000"><path d="M180.405,7.6425c-0.99763,0.02973 -1.94449,0.44667 -2.64,1.1625l-22.125,22.125c-15.71384,-14.40903 -36.65332,-23.25 -59.64,-23.25c-48.73139,0 -88.32,39.58861 -88.32,88.32c0,22.98327 8.86962,43.89671 23.28,59.61l-22.155,22.155c-1.00315,0.96314 -1.40725,2.39334 -1.05643,3.73903c0.35081,1.34569 1.40171,2.39659 2.7474,2.7474c1.34569,0.35081 2.77589,-0.05328 3.73903,-1.05644l168.96,-168.96c1.13572,-1.10397 1.4772,-2.79193 0.85991,-4.25054c-0.6173,-1.45861 -2.06674,-2.38864 -3.64991,-2.34195zM96,15.36c20.90831,0 39.87757,7.97848 54.2025,21.0075l-113.835,113.835c-13.03288,-14.32563 -21.0075,-33.29387 -21.0075,-54.2025c0,-44.58061 36.05939,-80.64 80.64,-80.64zM166.0875,42.225l-5.5425,5.5425c10.40256,13.83936 16.095,30.51474 16.095,48.2325c0,44.58061 -36.05939,80.64 -80.64,80.64c-17.7216,0 -34.39698,-5.69244 -48.2325,-16.095l-5.5425,5.5425c15.23959,11.76477 33.77346,18.14622 53.445,18.2175c0.01998,0.00266 0.03998,0.00516 0.06,0.0075c0.09061,0.00027 0.17934,0.0075 0.27,0.0075c48.73139,0 88.32,-39.58861 88.32,-88.32c0,-0.12847 -0.01446,-0.25412 -0.015,-0.3825c0,-0.0025 0,-0.005 0,-0.0075c-0.08413,-19.64533 -6.46095,-38.16099 -18.2175,-53.385z"></path></g></g></svg>