<svg version="1.1" xmlns="http://www.w3.org/2000/svg" xmlns:xlink="http://www.w3.org/1999/xlink" viewBox="0 0 192 192"><g fill="none" fill-rule="nonzero" stroke="none" stroke-width="1" stroke-linecap="butt" stroke-linejoin="miter" stroke-miterlimit="10" stroke-dasharray="" stroke-dashoffset="0" font-family="none" font-weight="none" font-size="none" text-anchor="none" style="mix-blend-mode: normal"><path d="M0,192v-192h192v192z" fill="none"></path><g fill="#000000"><g id="surface1"><path d="M111.33,32.82c-20.025,0 -36.9,11.955 -45.045,28.89c-4.35,-3 -9.33,-5.175 -15,-5.175c-14.265,0 -25.74,11.295 -26.595,25.35c-14.295,5.175 -24.69,18.54 -24.69,34.575c0,20.475 16.665,37.14 37.14,37.14h120.675c18.84,0 34.185,-15.345 34.185,-34.185c0,-17.475 -13.395,-31.41 -30.36,-33.405c0.06,-0.9 0.18,-1.77 0.18,-2.7c0,-27.84 -22.65,-50.49 -50.49,-50.49zM111.33,40.5c23.7,0 42.81,19.125 42.81,42.81c0,1.755 -0.135,3.51 -0.36,5.31l-0.54,4.305h4.35c0.465,0 0.525,0 0.225,0c14.685,0 26.505,11.82 26.505,26.49c0,14.685 -11.82,26.505 -26.505,26.505h-120.675c-16.32,0 -29.46,-13.14 -29.46,-29.46c0,-13.575 9.165,-24.915 21.6,-28.35l2.925,-0.81l-0.105,-3.015c-0.015,-0.54 -0.045,-0.81 -0.045,-0.84c0,-10.665 8.565,-19.23 19.23,-19.23c5.34,0 10.125,2.16 13.605,5.64l4.23,4.245l2.1,-5.625c6.03,-16.305 21.645,-27.975 40.11,-27.975zM93.345,69.12c-0.765,0 -1.2,0.435 -1.2,1.2v43.68c0,0.765 0.435,1.2 1.2,1.2h9.315c0.765,0 1.08,-0.435 1.08,-1.2v-43.68c0,-0.765 -0.315,-1.2 -1.08,-1.2zM93.36,122.865c-0.765,0 -1.2,0.315 -1.2,1.08v9.255c0,0.765 0.435,1.2 1.2,1.2h9.135c0.765,0 1.2,-0.435 1.2,-1.2v-9.255c0,-0.765 -0.435,-1.08 -1.2,-1.08z"></path></g></g></g></svg>