<svg version="1.1" xmlns="http://www.w3.org/2000/svg" xmlns:xlink="http://www.w3.org/1999/xlink" viewBox="0 0 192 192"><g fill="none" fill-rule="nonzero" stroke="none" stroke-width="1" stroke-linecap="butt" stroke-linejoin="miter" stroke-miterlimit="10" stroke-dasharray="" stroke-dashoffset="0" font-family="none" font-weight="none" font-size="none" text-anchor="none" style="mix-blend-mode: normal"><path d="M0,192v-192h192v192z" fill="none"></path><g fill="#e80d33"><g id="surface1"><path d="M92.16,7.68c-11.475,0 -21.51,2.4 -30.12,6.12c-1.41,0.435 -2.445,1.665 -2.655,3.12c-0.21,1.47 0.45,2.925 1.68,3.75c1.23,0.81 2.82,0.855 4.095,0.09c7.695,-3.33 16.56,-5.4 27,-5.4c15.36,0 27.975,3.51 38.52,9c1.89,0.99 4.23,0.27 5.22,-1.62c0.99,-1.89 0.27,-4.23 -1.62,-5.22c-11.595,-6.03 -25.59,-9.84 -42.12,-9.84zM50.52,20.4c-0.615,0.105 -1.185,0.345 -1.68,0.72c-10.77,7.515 -18.675,16.935 -24.48,24.84c-2.895,3.96 -5.25,7.53 -7.2,10.32c-1.95,2.79 -3.585,4.905 -4.08,5.28c-1.29,0.75 -2.04,2.19 -1.89,3.675c0.135,1.5 1.125,2.775 2.535,3.27c1.41,0.495 2.985,0.135 4.035,-0.945c2.16,-1.68 3.615,-3.945 5.64,-6.84c2.025,-2.895 4.425,-6.405 7.2,-10.2c5.55,-7.575 12.81,-16.23 22.56,-23.04c1.485,-0.93 2.145,-2.76 1.605,-4.425c-0.54,-1.665 -2.13,-2.76 -3.885,-2.655c-0.12,0 -0.24,0 -0.36,0zM94.68,26.88c-2.115,0.3 -3.6,2.265 -3.3,4.38c0.3,2.115 2.265,3.6 4.38,3.3c39.03,2.28 55.53,24 62.52,48.6c6.99,24.6 3.315,52.275 0,62.52c-0.66,2.025 0.435,4.2 2.46,4.86c2.025,0.66 4.2,-0.435 4.86,-2.46c3.99,-12.315 7.695,-40.29 0.12,-66.96c-7.575,-26.67 -27.63,-51.795 -69.48,-54.24c-0.285,-0.03 -0.555,-0.03 -0.84,0c-0.12,0 -0.24,0 -0.36,0c-0.12,0 -0.24,0 -0.36,0zM146.76,27.12c-1.53,0.285 -2.745,1.47 -3.06,3c-0.315,1.53 0.33,3.09 1.62,3.96c30.03,20.73 34.8,67.68 34.8,67.68c0.195,2.115 2.085,3.675 4.2,3.48c2.115,-0.195 3.675,-2.085 3.48,-4.2c0,0 -4.11,-49.68 -38.16,-73.2c-0.825,-0.615 -1.86,-0.87 -2.88,-0.72zM79.92,28.32c-0.075,0.03 -0.165,0.075 -0.24,0.12c-26.535,5.265 -39.375,23.535 -49.32,39c-1.155,1.785 -0.645,4.185 1.14,5.34c1.785,1.155 4.185,0.645 5.34,-1.14c9.825,-15.3 20.565,-31.05 44.28,-35.76c1.935,-0.48 3.195,-2.355 2.88,-4.335c-0.315,-1.965 -2.085,-3.375 -4.08,-3.225zM96,46.08c-13.35,0 -23.55,4.275 -31.44,10.68c-1.665,1.32 -1.92,3.75 -0.6,5.4c1.32,1.665 3.75,1.92 5.4,0.6c6.72,-5.445 14.895,-9 26.64,-9c3.39,0 6.63,0.285 9.72,0.84c1.38,0.3 2.805,-0.18 3.72,-1.245c0.93,-1.08 1.185,-2.565 0.69,-3.87c-0.51,-1.32 -1.695,-2.265 -3.09,-2.445c-3.54,-0.63 -7.215,-0.96 -11.04,-0.96zM120,51.6c-0.12,0.03 -0.24,0.075 -0.36,0.12c-1.59,0.36 -2.79,1.68 -2.97,3.3c-0.195,1.62 0.66,3.18 2.13,3.9c16.815,8.58 27.12,27.27 27.12,52.44c0,7.47 -0.915,15.39 -2.28,22.92c-0.405,2.085 0.975,4.095 3.06,4.5c2.085,0.405 4.095,-0.975 4.5,-3.06c1.425,-7.845 2.4,-16.245 2.4,-24.36c0,-27.3 -11.595,-49.215 -31.32,-59.28c-0.69,-0.39 -1.485,-0.555 -2.28,-0.48zM96,65.28c-10.005,0 -17.775,3.21 -23.64,8.16c-5.865,4.95 -9.87,11.43 -13.44,18.12c-0.99,1.89 -0.27,4.23 1.62,5.22c1.89,0.99 4.23,0.27 5.22,-1.62c3.39,-6.375 6.9,-11.94 11.52,-15.84c4.62,-3.9 10.26,-6.36 18.72,-6.36c7.98,0 13.8,2.505 18.36,6.48c4.56,3.975 7.83,9.54 9.84,15.72c0.345,1.38 1.425,2.475 2.805,2.805c1.395,0.345 2.85,-0.105 3.795,-1.17c0.945,-1.08 1.23,-2.58 0.72,-3.915c-2.34,-7.185 -6.24,-14.07 -12.12,-19.2c-5.88,-5.13 -13.755,-8.4 -23.4,-8.4zM55.56,67.44c-1.035,0.195 -1.95,0.795 -2.52,1.68c-7.665,10.365 -13.2,21.87 -19.56,30.12c-6.36,8.25 -12.66,13.155 -23.88,12.12c-2.115,-0.195 -4.005,1.365 -4.2,3.48c-0.195,2.115 1.365,4.005 3.48,4.2c13.92,1.275 23.595,-5.865 30.72,-15.12c7.125,-9.255 12.51,-20.7 19.56,-30.24c0.915,-1.14 1.095,-2.685 0.495,-4.005c-0.615,-1.32 -1.92,-2.19 -3.375,-2.235c-0.12,0 -0.24,0 -0.36,0c-0.12,0 -0.24,0 -0.36,0zM25.08,78.24c-0.21,0.03 -0.405,0.06 -0.6,0.12c-0.975,0.195 -1.83,0.75 -2.4,1.56c-4.5,6.135 -8.97,10.575 -14.52,12.48c-1.44,0.315 -2.58,1.44 -2.91,2.895c-0.33,1.44 0.195,2.94 1.35,3.855c1.17,0.93 2.745,1.095 4.08,0.45c7.755,-2.67 13.335,-8.445 18.24,-15.12c0.96,-1.185 1.125,-2.82 0.42,-4.17c-0.705,-1.365 -2.145,-2.175 -3.66,-2.07zM89.52,82.08c-0.465,0.075 -0.915,0.24 -1.32,0.48c-6.69,3.63 -9.765,10.935 -12.36,18.24c-2.595,7.305 -4.71,15.015 -7.32,20.04c-7.53,14.505 -21.915,28.92 -41.64,28.92c-1.38,-0.015 -2.67,0.705 -3.375,1.905c-0.69,1.2 -0.69,2.67 0,3.87c0.705,1.2 1.995,1.92 3.375,1.905c23.415,0 40.05,-16.755 48.48,-33c3.285,-6.345 5.265,-14.175 7.68,-21c2.415,-6.825 5.385,-12.27 8.88,-14.16c1.68,-0.87 2.475,-2.835 1.89,-4.635c-0.6,-1.785 -2.43,-2.88 -4.29,-2.565zM102.84,82.8c-1.59,0.27 -2.835,1.5 -3.12,3.075c-0.3,1.59 0.42,3.18 1.8,4.005c3.795,2.58 6,9.375 6,18.12c0,5.79 -2.085,19.41 -7.56,33.48c-5.475,14.07 -14.34,28.71 -27.24,37.92c-1.755,1.23 -2.19,3.645 -0.96,5.4c1.23,1.755 3.645,2.19 5.4,0.96c14.67,-10.47 24.06,-26.55 29.88,-41.52c5.82,-14.97 8.16,-28.755 8.16,-36.24c0,-9.945 -2.16,-19.515 -9.48,-24.48c-0.825,-0.615 -1.86,-0.87 -2.88,-0.72zM95.4,99.84c-1.8,0.285 -3.15,1.785 -3.24,3.6c0,0 -0.825,12.615 -7.44,27.48c-0.765,1.275 -0.72,2.865 0.09,4.095c0.825,1.23 2.28,1.89 3.75,1.68c1.455,-0.21 2.685,-1.245 3.12,-2.655c7.185,-16.125 8.16,-30.12 8.16,-30.12c0.09,-1.17 -0.36,-2.325 -1.23,-3.12c-0.87,-0.795 -2.055,-1.14 -3.21,-0.96zM54.24,103.68c-1.14,0.24 -2.115,0.99 -2.64,2.04c-3.705,6.9 -7.785,13.215 -13.32,17.64c-5.535,4.425 -12.525,7.2 -23.04,7.2c-1.38,-0.015 -2.67,0.705 -3.375,1.905c-0.69,1.2 -0.69,2.67 0,3.87c0.705,1.2 1.995,1.92 3.375,1.905c11.955,0 21.015,-3.435 27.84,-8.88c6.825,-5.445 11.46,-12.66 15.36,-19.92c0.75,-1.275 0.705,-2.865 -0.105,-4.08c-0.825,-1.23 -2.28,-1.89 -3.735,-1.68c-0.12,0 -0.24,0 -0.36,0zM130.2,107.4c-0.165,0.03 -0.33,0.075 -0.48,0.12c-1.785,0.405 -3.045,2.01 -3,3.84c0,39.825 -23.16,69.24 -23.16,69.24c-1.32,1.695 -1.035,4.14 0.66,5.46c1.695,1.32 4.14,1.035 5.46,-0.66c0,0 24.72,-31.245 24.72,-74.04c0.045,-1.11 -0.405,-2.175 -1.2,-2.925c-0.81,-0.765 -1.905,-1.14 -3,-1.035zM80.88,141.24c-1.14,0.15 -2.16,0.81 -2.76,1.8c-6.63,10.065 -16.245,19.575 -30.48,25.8c-1.95,0.825 -2.865,3.09 -2.04,5.04c0.825,1.95 3.09,2.865 5.04,2.04c15.75,-6.885 26.55,-17.64 33.84,-28.68c0.855,-1.245 0.915,-2.865 0.135,-4.155c-0.78,-1.305 -2.235,-2.025 -3.735,-1.845zM143.16,147.24c-1.56,0.27 -2.79,1.455 -3.12,3c-3.015,11.4 -6,19.32 -6,19.32c-0.57,1.305 -0.36,2.82 0.54,3.93c0.885,1.11 2.31,1.635 3.72,1.365c1.395,-0.27 2.52,-1.29 2.94,-2.655c0,0 3.135,-8.265 6.24,-20.04c0.36,-1.215 0.105,-2.52 -0.69,-3.495c-0.795,-0.99 -2.01,-1.515 -3.27,-1.425c-0.12,0 -0.24,0 -0.36,0z"></path></g></g></g></svg>